<?xml version="1.0" encoding="UTF-8" standalone="no"?>
<!-- Created with Inkscape (http://www.inkscape.org/) -->

<svg
   xmlns:dc="http://purl.org/dc/elements/1.1/"
   xmlns:cc="http://creativecommons.org/ns#"
   xmlns:rdf="http://www.w3.org/1999/02/22-rdf-syntax-ns#"
   xmlns:svg="http://www.w3.org/2000/svg"
   xmlns="http://www.w3.org/2000/svg"
   xmlns:xlink="http://www.w3.org/1999/xlink"
   xmlns:sodipodi="http://sodipodi.sourceforge.net/DTD/sodipodi-0.dtd"
   xmlns:inkscape="http://www.inkscape.org/namespaces/inkscape"
   id="svg2"
   version="1.1"
   inkscape:version="0.48.2 r9819"
   width="620"
   height="552.5"
   xml:space="preserve"
   sodipodi:docname="CylinBCXZ2.eps"><metadata
     id="metadata8"><rdf:RDF><cc:Work
         rdf:about=""><dc:format>image/svg+xml</dc:format><dc:type
           rdf:resource="http://purl.org/dc/dcmitype/StillImage" /><dc:title></dc:title></cc:Work></rdf:RDF></metadata><defs
     id="defs6"><clipPath
       clipPathUnits="userSpaceOnUse"
       id="clipPath46"><path
         d="m 222.852,18.0508 4737.15,0 0,4401.95 -4737.15,0 0,-4401.95 z"
         id="path48" /></clipPath><clipPath
       clipPathUnits="userSpaceOnUse"
       id="clipPath78"><path
         d="m 222.852,4420 4737.148,0 0,-4401.9492 -4737.148,0 0,4401.9492 z"
         id="path80" /></clipPath></defs><sodipodi:namedview
     pagecolor="#ffffff"
     bordercolor="#666666"
     borderopacity="1"
     objecttolerance="10"
     gridtolerance="10"
     guidetolerance="10"
     inkscape:pageopacity="0"
     inkscape:pageshadow="2"
     inkscape:window-width="1680"
     inkscape:window-height="1026"
     id="namedview4"
     showgrid="false"
     inkscape:zoom="1.4711191"
     inkscape:cx="305.6675"
     inkscape:cy="276.18017"
     inkscape:window-x="0"
     inkscape:window-y="24"
     inkscape:window-maximized="1"
     inkscape:current-layer="g10" /><g
     id="g10"
     inkscape:groupmode="layer"
     inkscape:label="ink_ext_XXXXXX"
     transform="matrix(1.25,0,0,-1.25,0,552.5)"><g
       id="g12"
       transform="matrix(0.1,0,0,0.1,-4.8942331,0)"><g
         id="g14"
         transform="matrix(0,4432,-5032,0,4961.34,-6.5586)"><image
           sodipodi:absref="/home/hongyi/Documents/git/openEMS_docu/svg/ink_ext_XXXXXX_img0.png"
           xlink:href="ink_ext_XXXXXX_img0.png"
           id="image16"
           transform="matrix(1,0,0,-1,0,1)"
           height="1"
           width="1" /></g><path
         d="m 1886.13,86.7188 1440.43,0 0,695.742 -1440.43,0 0,-695.742 z"
         style="fill:#ffffff;fill-opacity:1;fill-rule:nonzero;stroke:none"
         id="path18"
         inkscape:connector-curvature="0" /><path
         d="m 2571.02,695.512 0,-451.172 -467.47,0"
         style="fill:none;stroke:#000000;stroke-width:8;stroke-linecap:butt;stroke-linejoin:miter;stroke-miterlimit:4;stroke-opacity:1;stroke-dasharray:none"
         id="path20"
         inkscape:connector-curvature="0" /><path
         d="m 2571.72,713.832 -34.65,-114.812 69.96,-0.7 -35.31,115.512 z"
         style="fill:none;stroke:#000000;stroke-width:8;stroke-linecap:butt;stroke-linejoin:miter;stroke-miterlimit:4;stroke-opacity:1;stroke-dasharray:none"
         id="path22"
         inkscape:connector-curvature="0" /><path
         d="m 2575.16,642.809 c 0,31.531 0.15,39.769 0.86,39.531 0.58,-0.192 24.8,-77.031 24.96,-79.18 0,-0.07 -5.82,-0.148 -12.93,-0.148 l -12.89,0 0,39.797 z"
         style="fill:#ffffff;fill-opacity:1;fill-rule:evenodd;stroke:none"
         id="path24"
         inkscape:connector-curvature="0" /><path
         d="m 2543.52,604.879 c 1.52,6.641 22.1,73.211 22.73,73.402 0.55,0.199 0.74,-9.922 0.74,-37.5 l 0,-37.769 -23.87,0 0.4,1.867 z"
         style="fill:#000000;fill-opacity:1;fill-rule:evenodd;stroke:none"
         id="path26"
         inkscape:connector-curvature="0" /><path
         d="m 2575.16,642.809 c 0,31.531 0.15,39.769 0.86,39.531 0.58,-0.192 24.84,-77.11 24.96,-79.18 0,-0.07 -5.82,-0.148 -12.93,-0.148 l -12.89,0 0,39.797 z"
         style="fill:#000000;fill-opacity:1;fill-rule:evenodd;stroke:none"
         id="path28"
         inkscape:connector-curvature="0" /><path
         d="m 2086.6,245.699 88.99,29.223 -0.67,-60.473 -88.32,31.25 z"
         style="fill:none;stroke:#000000;stroke-width:8;stroke-linecap:butt;stroke-linejoin:miter;stroke-miterlimit:4;stroke-opacity:1;stroke-dasharray:none"
         id="path30"
         inkscape:connector-curvature="0" /><path
         d="m 2113.28,249.141 c 0.2,0.55 55.39,19.379 57.42,19.57 0.12,0 0.2,-4.57 0.2,-10.191 l 0,-10.2 -28.95,0 c -21.91,0 -28.86,0.2 -28.67,0.821 z"
         style="fill:#000000;fill-opacity:1;fill-rule:evenodd;stroke:none"
         id="path32"
         inkscape:connector-curvature="0" /><path
         d="m 2145.08,229.609 c -13.99,5 -25.55,9.411 -25.7,9.801 -0.16,0.551 6.95,0.789 25.62,0.789 l 25.9,0 0,-9.847 c 0,-5.43 -0.08,-9.84 -0.2,-9.84 -0.08,0.039 -11.6,4.136 -25.62,9.097 z"
         style="fill:#000000;fill-opacity:1;fill-rule:evenodd;stroke:none"
         id="path34"
         inkscape:connector-curvature="0" /><g
         id="g36"
         transform="scale(10,10)"><text
           transform="matrix(1,0,0,-0.85808184,260.009,66.2211)"
           id="text38"><tspan
             style="font-size:30.57983398px;font-variant:normal;font-weight:normal;writing-mode:lr-tb;fill:#000000;fill-opacity:1;fill-rule:nonzero;stroke:none;font-family:DejaVuSans;-inkscape-font-specification:DejaVuSans"
             x="0"
             y="0"
             id="tspan40">z</tspan></text>
</g><g
         id="g42"><g
           id="g44"
           clip-path="url(#clipPath46)"><g
             id="g50"
             transform="scale(10,10)"><text
               transform="matrix(0.999884,0.0152125,0.0152125,-0.999884,151.524,419.541)"
               id="text52"><tspan
                 style="font-size:15.99999523px;font-variant:normal;font-weight:normal;writing-mode:lr-tb;fill:#00ff00;fill-opacity:1;fill-rule:nonzero;stroke:none;font-family:DejaVuSans;-inkscape-font-specification:DejaVuSans"
                 x="0 9.6479969 23.469702 32.372971 40.372971"
                 y="0"
                 sodipodi:role="line"
                 id="tspan54">PML_8</tspan></text>
</g><g
             id="g56"
             transform="scale(10,10)"><text
               transform="matrix(0.999998,0.00189704,0.00189704,-0.999998,194.654,84.7504)"
               id="text58"><tspan
                 style="font-size:15.99999714px;font-variant:normal;font-weight:normal;writing-mode:lr-tb;fill:#000000;fill-opacity:1;fill-rule:nonzero;stroke:none;font-family:DejaVuSans;-inkscape-font-specification:DejaVuSans"
                 x="0 8.4047108 16.404709 31.98287 36.439072"
                 y="0"
                 sodipodi:role="line"
                 id="tspan60">z_min</tspan></text>
<text
               transform="matrix(0.999894,0.0145575,0.0145575,-0.999894,216.846,421.152)"
               id="text62"><tspan
                 style="font-size:15.99999905px;font-variant:normal;font-weight:normal;writing-mode:lr-tb;fill:#000000;fill-opacity:1;fill-rule:nonzero;stroke:none;font-family:DejaVuSans;-inkscape-font-specification:DejaVuSans"
                 x="0 8.4043941 16.404394 31.998646 41.816685"
                 y="0"
                 sodipodi:role="line"
                 id="tspan64">z_max</tspan></text>
</g><path
             d="m 1187.38,745.859 647.109,0 0,266.48 -647.109,0 0,-266.48 z"
             style="fill:#ffffff;fill-opacity:1;fill-rule:evenodd;stroke:none"
             id="path66"
             inkscape:connector-curvature="0" /><g
             id="g68"
             transform="scale(10,10)"><text
               transform="matrix(1,0,0,-1,139.948,83.8324)"
               id="text70"><tspan
                 style="font-size:16px;font-variant:normal;font-weight:normal;writing-mode:lr-tb;fill:#ff0000;fill-opacity:1;fill-rule:nonzero;stroke:none;font-family:DejaVuSans;-inkscape-font-specification:DejaVuSans"
                 x="0 9.6468277 19.779922"
                 y="0"
                 sodipodi:role="line"
                 id="tspan72">PEC</tspan></text>
</g></g></g><g
         id="g74"><g
           id="g76"
           clip-path="url(#clipPath78)"><g
             id="g82"
             transform="scale(10,10)"><text
               transform="matrix(1,0,0,-0.69681555,197.361,33.5738)"
               id="text84"><tspan
                 style="font-size:27.44585609px;font-variant:normal;font-weight:normal;writing-mode:lr-tb;fill:#000000;fill-opacity:1;fill-rule:nonzero;stroke:none;font-family:DejaVuSans;-inkscape-font-specification:DejaVuSans"
                 x="0"
                 y="0"
                 id="tspan86">ρ</tspan></text>
</g></g></g></g></g></svg>